# xmcd CD database file
#
# Track frame offsets:
#	150
#	18725
#	36650
#	51695
#	66992
#	85625
#	99875
#	118725
#	134750
#	152287
#	172275
#	188400
#
# Disc length: 2725 seconds
#
# Revision: 2
# Processed by: cddbd v1.4b41PL1 Copyright (c) Steve Scherf et al.
# Submitted via: Feurio! 1.50.2ß - http://www.feurio.com
#
DISCID=aa0aa30c
DTITLE=Eugen Cicero and His Friends - Berlin Reunion
DYEAR=1900
DGENRE=
TTITLE0=Children Of The Sun
TTITLE1=People Will Say It`s An Old One
TTITLE2=Back Home Again
TTITLE3=The Morning Sun, Will Never Set
TTITLE4=Allnight Long
TTITLE5=Don`t Ask Me Why
TTITLE6=Start To Be
TTITLE7=Hungry For Freedom
TTITLE8=Picadilly Circle
TTITLE9=After All These Years
TTITLE10=Remember Domo
TTITLE11=Meet Me Tomorrow
EXTD=
EXTT0=
EXTT1=
EXTT2=
EXTT3=
EXTT4=
EXTT5=
EXTT6=
EXTT7=
EXTT8=
EXTT9=
EXTT10=
EXTT11=
PLAYORDER=
